<svg width="28" height="28" viewBox="0 0 28 28" fill="none" xmlns="http://www.w3.org/2000/svg">
<path d="M14 0.666656C6.64799 0.666656 0.666656 6.64799 0.666656 14V19.524C0.666656 20.8893 1.86266 22 3.33332 22H4.66666C5.02028 22 5.35942 21.8595 5.60947 21.6095C5.85951 21.3594 5.99999 21.0203 5.99999 20.6667V13.8093C5.99999 13.4557 5.85951 13.1166 5.60947 12.8665C5.35942 12.6165 5.02028 12.476 4.66666 12.476H3.45599C4.19732 7.31599 8.63732 3.33332 14 3.33332C19.3627 3.33332 23.8027 7.31599 24.544 12.476H23.3333C22.9797 12.476 22.6406 12.6165 22.3905 12.8665C22.1405 13.1166 22 13.4557 22 13.8093V22C22 23.4707 20.804 24.6667 19.3333 24.6667H16.6667V23.3333H11.3333V27.3333H19.3333C22.2747 27.3333 24.6667 24.9413 24.6667 22C26.1373 22 27.3333 20.8893 27.3333 19.524V14C27.3333 6.64799 21.352 0.666656 14 0.666656Z" fill="white"/>
</svg>
