<svg width="32" height="32" viewBox="0 0 32 32" fill="none" xmlns="http://www.w3.org/2000/svg">
<path d="M27.125 22.875H24.9281C24.7781 22.875 24.6375 22.9406 24.5437 23.0562C24.325 23.3219 24.0906 23.5781 23.8437 23.8219C22.834 24.8326 21.638 25.6381 20.3218 26.1938C18.9583 26.7697 17.4927 27.0651 16.0125 27.0625C14.5156 27.0625 13.0656 26.7688 11.7031 26.1938C10.3869 25.6381 9.19094 24.8326 8.18124 23.8219C7.16972 22.8146 6.36317 21.6207 5.80624 20.3062C5.22812 18.9437 4.93749 17.4969 4.93749 16C4.93749 14.5031 5.23124 13.0562 5.80624 11.6937C6.36249 10.3781 7.16249 9.19374 8.18124 8.17811C9.19999 7.16249 10.3844 6.36249 11.7031 5.80624C13.0656 5.23124 14.5156 4.93749 16.0125 4.93749C17.5094 4.93749 18.9593 5.22811 20.3218 5.80624C21.6406 6.36249 22.825 7.16249 23.8437 8.17811C24.0906 8.42499 24.3218 8.68124 24.5437 8.94374C24.6375 9.05937 24.7812 9.12499 24.9281 9.12499H27.125C27.3218 9.12499 27.4437 8.90624 27.3343 8.74062C24.9375 5.01561 20.7437 2.54999 15.9781 2.56249C8.49061 2.58124 2.48749 8.65937 2.56249 16.1375C2.63749 23.4969 8.63124 29.4375 16.0125 29.4375C20.7656 29.4375 24.9406 26.975 27.3343 23.2594C27.4406 23.0937 27.3218 22.875 27.125 22.875ZM29.9031 15.8031L25.4687 12.3031C25.3031 12.1719 25.0625 12.2906 25.0625 12.5V14.875H15.25C15.1125 14.875 15 14.9875 15 15.125V16.875C15 17.0125 15.1125 17.125 15.25 17.125H25.0625V19.5C25.0625 19.7094 25.3062 19.8281 25.4687 19.6969L29.9031 16.1969C29.933 16.1735 29.9571 16.1436 29.9738 16.1095C29.9904 16.0754 29.999 16.0379 29.999 16C29.999 15.9621 29.9904 15.9246 29.9738 15.8905C29.9571 15.8564 29.933 15.8265 29.9031 15.8031Z" fill="#964C9A"/>
</svg>
