<svg width="32" height="32" viewBox="0 0 32 32" fill="none" xmlns="http://www.w3.org/2000/svg">
<path d="M28.1067 9.33332C27.8763 8.93415 27.5464 8.6015 27.1491 8.36782C26.7519 8.13414 26.3008 8.00741 25.84 7.99999H8.77332L7.99999 4.98666C7.92186 4.69577 7.74754 4.43991 7.50543 4.26075C7.26331 4.08159 6.96767 3.98968 6.66666 3.99999H3.99999C3.64637 3.99999 3.30723 4.14046 3.05718 4.39051C2.80713 4.64056 2.66666 4.9797 2.66666 5.33332C2.66666 5.68694 2.80713 6.02608 3.05718 6.27613C3.30723 6.52618 3.64637 6.66666 3.99999 6.66666H5.65332L9.33332 20.3467C9.41146 20.6375 9.58578 20.8934 9.82789 21.0726C10.07 21.2517 10.3656 21.3436 10.6667 21.3333H22.6667C22.9129 21.3326 23.1541 21.2637 23.3635 21.1342C23.573 21.0048 23.7425 20.8199 23.8533 20.6L28.2267 11.8533C28.4162 11.456 28.5045 11.0179 28.4835 10.5782C28.4626 10.1385 28.3331 9.71083 28.1067 9.33332ZM21.84 18.6667H11.68L9.50666 10.6667H25.84L21.84 18.6667Z" fill="#964C9A"/>
<path d="M10 28C11.1046 28 12 27.1046 12 26C12 24.8954 11.1046 24 10 24C8.89543 24 8 24.8954 8 26C8 27.1046 8.89543 28 10 28Z" fill="#964C9A"/>
<path d="M23.3333 28C24.4379 28 25.3333 27.1046 25.3333 26C25.3333 24.8954 24.4379 24 23.3333 24C22.2288 24 21.3333 24.8954 21.3333 26C21.3333 27.1046 22.2288 28 23.3333 28Z" fill="#964C9A"/>
</svg>
