<svg width="32" height="32" viewBox="0 0 32 32" fill="none" xmlns="http://www.w3.org/2000/svg">
<g clip-path="url(#clip0_39_1227)">
<path d="M27.9378 14.2222H8.88889V16H27.9378C28.1735 16 28.3996 15.9064 28.5663 15.7397C28.733 15.573 28.8267 15.3469 28.8267 15.1111C28.8267 14.8754 28.733 14.6493 28.5663 14.4826C28.3996 14.3159 28.1735 14.2222 27.9378 14.2222Z" fill="#964C9A"/>
<path d="M27.9378 21.3333H8.88889V23.1111H27.9378C28.1735 23.1111 28.3996 23.0174 28.5663 22.8507C28.733 22.684 28.8267 22.4579 28.8267 22.2222C28.8267 21.9865 28.733 21.7604 28.5663 21.5937C28.3996 21.427 28.1735 21.3333 27.9378 21.3333Z" fill="#964C9A"/>
<path d="M13.7333 8.88886H27.9556C28.1913 8.88886 28.4174 8.79521 28.5841 8.62851C28.7508 8.46181 28.8444 8.23572 28.8444 7.99997C28.8444 7.76423 28.7508 7.53813 28.5841 7.37143C28.4174 7.20473 28.1913 7.11108 27.9556 7.11108H15.5111L13.7333 8.88886Z" fill="#964C9A"/>
<path d="M15.5556 3.04002C15.4654 2.94892 15.3582 2.87659 15.2399 2.82722C15.1217 2.77786 14.9948 2.75244 14.8667 2.75244C14.7385 2.75244 14.6117 2.77786 14.4934 2.82722C14.3752 2.87659 14.2679 2.94892 14.1778 3.04002L7.01333 10.2045L4.00888 6.96891C3.83207 6.77914 3.58712 6.66737 3.3279 6.6582C3.06868 6.64903 2.81644 6.74321 2.62666 6.92002C2.43688 7.09683 2.32512 7.34179 2.31595 7.60101C2.30678 7.86023 2.40096 8.11247 2.57777 8.30225L6.96888 13.0134L15.5556 4.44447C15.6496 4.35331 15.7244 4.24418 15.7755 4.12354C15.8266 4.00291 15.8529 3.87325 15.8529 3.74225C15.8529 3.61124 15.8266 3.48158 15.7755 3.36095C15.7244 3.24032 15.6496 3.13118 15.5556 3.04002Z" fill="#964C9A"/>
</g>
<defs>
<clipPath id="clip0_39_1227">
<rect width="32" height="32" fill="white"/>
</clipPath>
</defs>
</svg>
