<svg width="93" height="67" viewBox="0 0 93 67" fill="none" xmlns="http://www.w3.org/2000/svg">
<path d="M89.176 1.208V1.66H88.432V4H87.872V1.66H87.128V1.208H89.176ZM92.6286 1.208V4H92.0686V2.184L91.3206 4H90.8966L90.1446 2.184V4H89.5846V1.208H90.2206L91.1086 3.284L91.9966 1.208H92.6286Z" fill="black"/>
<path d="M44.937 67H44.9052C44.6552 67 44.3974 66.9924 44.1475 66.9788C43.8812 66.9644 43.6158 66.9431 43.3581 66.9143C43.1004 66.8854 42.834 66.8505 42.5763 66.8149C42.561 66.8093 42.5445 66.8071 42.5281 66.808C42.2859 66.7655 42.0437 66.7162 41.8024 66.6661C41.4173 66.59 41.0379 66.4929 40.6663 66.3755H40.6578C40.2794 66.2617 39.9166 66.1342 39.5537 65.9923C39.4331 65.9422 39.3124 65.8997 39.1995 65.8405C39.0866 65.7813 38.9573 65.7411 38.8444 65.6888L38.8366 65.6819C38.716 65.625 38.6031 65.5681 38.4919 65.5112C38.3807 65.4543 38.2583 65.3981 38.1471 65.3344C37.9455 65.2274 37.7438 65.1211 37.5507 65.0073C37.0789 64.7215 36.6268 64.4113 36.1967 64.0785C36.0674 63.9791 35.9545 63.8865 35.8339 63.7803C35.7537 63.7165 35.6813 63.652 35.6003 63.5814C35.4555 63.454 35.3098 63.3189 35.1693 63.1838C35.0289 63.0487 34.896 62.9076 34.759 62.7657C34.622 62.6238 34.4928 62.4819 34.3721 62.3324C34.2514 62.1829 34.1222 62.0288 34.0015 61.871L33.711 61.4916L33.6145 61.3633C32.3865 59.5527 31.7376 57.4834 31.7365 55.3745C31.7323 53.0645 32.5186 50.8071 33.9929 48.8963L44.6552 34.9753L44.9215 34.6345L45.2999 34.1375L51.7795 25.6726L65.0852 8.30946C65.0891 8.30171 65.0943 8.29454 65.1008 8.28823L65.7213 7.47929C66.6712 6.17859 67.9066 5.05808 69.355 4.1835C70.8035 3.30892 72.4357 2.6979 74.156 2.38631C75.8764 2.07473 77.65 2.06888 79.3729 2.36906C81.0958 2.66924 82.7333 3.26942 84.1892 4.13438C85.6451 4.99934 86.8897 6.11165 87.8507 7.40602C88.8117 8.70038 89.4693 10.1507 89.7848 11.6719C90.1011 13.1931 90.0683 14.7544 89.6891 16.2644C89.3099 17.7743 88.5919 19.2023 87.5775 20.4646L66.9788 47.3498C66.971 47.3566 66.971 47.3642 66.9624 47.371L61.2895 54.7788L55.9622 61.7321C55.9381 61.761 55.9217 61.7822 55.9053 61.8035C55.8915 61.8297 55.8725 61.8536 55.8493 61.874V61.8816C55.6882 62.0873 55.5192 62.2861 55.3494 62.4773C55.3302 62.5127 55.303 62.5443 55.2693 62.5699C55.1564 62.705 55.027 62.8393 54.8986 62.9668C54.6969 63.18 54.4789 63.3857 54.254 63.5845L54.2376 63.5989C54.0652 63.7507 53.8988 63.8895 53.7204 64.0314C53.648 64.0815 53.5757 64.1377 53.5033 64.1946C53.374 64.3008 53.237 64.3934 53.0999 64.486C53.0638 64.5185 53.0232 64.5471 52.9793 64.571C52.8504 64.6646 52.716 64.7523 52.5768 64.8335C52.4907 64.8965 52.399 64.9534 52.3027 65.0035C52.3027 65.0103 52.2941 65.0103 52.2941 65.0103C51.855 65.2687 51.4005 65.5057 50.9323 65.7206C50.7229 65.8124 50.5056 65.905 50.2953 65.99C50.2875 65.99 50.2876 65.9968 50.2798 65.9968C50.0377 66.0894 49.8041 66.1744 49.5628 66.2526C49.3214 66.3307 49.0629 66.4089 48.8052 66.4802C48.5475 66.5516 48.2975 66.6077 48.0476 66.6646C47.7976 66.7215 47.5554 66.764 47.3141 66.8065C47.2847 66.8077 47.2558 66.8127 47.2279 66.8209C46.978 66.8566 46.7367 66.8915 46.4867 66.9128C46.2368 66.934 45.9626 66.9628 45.6963 66.9773C45.4446 66.9924 45.1956 67 44.937 67Z" fill="url(#paint0_linear_39_1164)"/>
<g style="mix-blend-mode:multiply" opacity="0.1">
<g style="mix-blend-mode:multiply" opacity="0.1">
<path d="M44.937 67H44.9052C44.6552 67 44.3974 66.9924 44.1475 66.9787C43.8812 66.9643 43.6158 66.9431 43.3581 66.9143C43.1004 66.8855 42.834 66.8505 42.5763 66.8148C42.561 66.8093 42.5445 66.807 42.5281 66.8081C42.2859 66.7656 42.0437 66.7162 41.8024 66.6662C41.4173 66.59 41.0379 66.4929 40.6663 66.3755H40.6578C40.2794 66.2617 39.9166 66.1342 39.5537 65.9923C39.4331 65.9422 39.3124 65.8996 39.1995 65.8405C39.0866 65.7813 38.9573 65.7411 38.8444 65.6888L38.8366 65.6819C38.716 65.625 38.6031 65.5681 38.4919 65.5112C38.3807 65.4543 38.2583 65.3981 38.1471 65.3344C37.9455 65.2274 37.7438 65.1211 37.5507 65.0073C37.0789 64.7215 36.6268 64.4113 36.1967 64.0785C36.0674 63.9791 35.9545 63.8864 35.8339 63.7802C35.7537 63.7164 35.6813 63.652 35.6003 63.5815C35.4555 63.454 35.3098 63.3189 35.1693 63.1838C35.0289 63.0487 34.896 62.9075 34.759 62.7656C34.622 62.6237 34.4928 62.4819 34.3721 62.3324C34.2514 62.1829 34.1222 62.0289 34.0015 61.871L33.711 61.4916L33.6145 61.3633C32.3865 59.5527 31.7376 57.4834 31.7365 55.3745C31.7323 53.0645 32.5186 50.8071 33.9929 48.8963L44.6552 34.9753L44.9215 34.6346L45.2999 34.1375L51.7795 25.6726L52.0131 26.3965L61.2895 54.7773L55.9622 61.7306C55.9381 61.7595 55.9217 61.7807 55.9054 61.802C55.8915 61.8281 55.8725 61.852 55.8493 61.8725V61.8801C55.6882 62.0858 55.5192 62.2846 55.3494 62.4758C55.3302 62.5112 55.303 62.5427 55.2693 62.5684C55.1564 62.7035 55.027 62.8377 54.8986 62.9652C54.6969 63.1784 54.4789 63.3841 54.254 63.583L54.2376 63.5974C54.0652 63.7492 53.8988 63.888 53.7204 64.0299C53.648 64.08 53.5757 64.1362 53.5033 64.1931C53.374 64.2993 53.237 64.3919 53.0999 64.4845C53.0638 64.517 53.0232 64.5456 52.9793 64.5695C52.8504 64.6631 52.716 64.7508 52.5768 64.832C52.4907 64.895 52.399 64.9518 52.3027 65.002C52.3027 65.0088 52.2941 65.0088 52.2941 65.0088C51.855 65.2671 51.4005 65.5042 50.9323 65.719C50.7229 65.8109 50.5056 65.9035 50.2953 65.9885C50.2875 65.9885 50.2876 65.9953 50.2798 65.9953C50.0377 66.0879 49.8041 66.1729 49.5628 66.2511C49.3214 66.3292 49.0629 66.4073 48.8052 66.4786C48.5475 66.55 48.2975 66.6062 48.0476 66.6631C47.7976 66.72 47.5554 66.7625 47.3141 66.8049C47.2847 66.8062 47.2558 66.8111 47.2279 66.8194C46.978 66.8551 46.7367 66.89 46.4867 66.9113C46.2368 66.9325 45.9626 66.9613 45.6963 66.9757C45.4446 66.9924 45.1956 67 44.937 67Z" fill="black"/>
</g>
</g>
<path d="M44.9367 66.9999H44.9049C44.655 66.9999 44.3972 66.9923 44.1472 66.9787C43.8809 66.9642 43.6155 66.943 43.3578 66.9142C43.1001 66.8853 42.8337 66.8504 42.576 66.8148C42.5608 66.8093 42.5443 66.8069 42.5278 66.8079C42.2857 66.7654 42.0435 66.7161 41.8021 66.666C41.0311 66.5013 40.2785 66.2758 39.5535 65.9922C39.3122 65.8996 39.0777 65.7934 38.8442 65.6939L38.8363 65.6871C38.6027 65.5809 38.3692 65.4595 38.1468 65.3396C37.9451 65.2326 37.7435 65.1263 37.5504 65.0125C37.0787 64.7267 36.6265 64.4165 36.1964 64.0837C35.9869 63.9205 35.793 63.7566 35.6 63.5866C35.0084 63.0619 34.4743 62.4892 34.0046 61.8762L33.7142 61.4968L33.6176 61.3685L30.7079 57.5796L30.7002 57.5728C30.7002 57.5652 30.6925 57.5652 30.6925 57.5584C30.6925 57.5515 30.6839 57.5515 30.6839 57.544H30.6761C30.664 57.5305 30.653 57.5163 30.6434 57.5015L20.4731 44.2255L19.2726 42.6577L2.25984 20.4698C0.778331 18.5388 -0.00792664 16.2596 0.00360403 13.9294C0.0151347 11.599 0.82393 9.32592 2.32449 7.40634C2.38051 7.33577 2.42877 7.27886 2.46928 7.23636C3.63483 5.78878 5.16398 4.59747 6.93779 3.75512C8.71158 2.91278 10.6823 2.44212 12.6964 2.37976H13.9616C15.9859 2.4879 17.9547 3.00496 19.7156 3.89085C21.4764 4.77674 22.9819 6.00769 24.1155 7.4883L34.0606 20.4736L34.4313 20.9563L39.525 27.5977L40.3145 28.6335C40.3224 28.6494 40.3334 28.6637 40.3472 28.676L44.9247 34.6435L44.9643 34.6929L55.8524 48.8984C57.3057 50.7978 58.0892 53.0327 58.1045 55.3227C58.1199 57.6128 57.3663 59.8558 55.9387 61.77C55.906 61.8125 55.874 61.855 55.8524 61.8906C55.6913 62.0963 55.5224 62.2951 55.3526 62.4863C55.2078 62.657 55.063 62.8202 54.9019 62.9758C54.7002 63.189 54.4821 63.3946 54.2572 63.5935L54.2407 63.6079C54.0072 63.8135 53.7651 64.0123 53.5074 64.2036C53.3781 64.3098 53.241 64.4024 53.104 64.495C53.0679 64.5276 53.0273 64.5561 52.9832 64.58C52.8544 64.6737 52.7201 64.7612 52.5808 64.8425C52.4902 64.9057 52.3958 64.9648 52.2981 65.0193C51.6592 65.3972 50.9854 65.7272 50.2838 66.0058C50.0416 66.0984 49.8081 66.1834 49.5667 66.2616C49.3255 66.3397 49.0669 66.4179 48.8092 66.4892C48.5514 66.5605 48.3016 66.6167 48.0516 66.6736C47.8017 66.7305 47.5594 66.773 47.3181 66.8155C47.2888 66.8168 47.2598 66.8217 47.232 66.8299C46.982 66.8656 46.7406 66.9005 46.4907 66.9218C46.2407 66.943 45.9667 66.9718 45.7003 66.9863C45.4444 66.9923 45.1953 66.9999 44.9367 66.9999Z" fill="url(#paint1_linear_39_1164)"/>
<g style="mix-blend-mode:multiply" opacity="0.1">
<g style="mix-blend-mode:multiply" opacity="0.1">
<path d="M20.4696 44.2226L19.269 42.6548L2.25636 20.4669C0.774852 18.5359 -0.0114056 16.2566 0.000125031 13.9264C0.0116557 11.5961 0.820424 9.32299 2.32098 7.40341C2.377 7.33284 2.42529 7.27593 2.4658 7.23343C3.63135 5.78584 5.16051 4.59453 6.93432 3.75219C8.70811 2.90985 10.6788 2.43919 12.6929 2.37683H13.9581C15.9824 2.48497 17.9513 3.00203 19.7121 3.88792C21.4729 4.77381 22.9784 6.00476 24.1119 7.48537L34.0572 20.4707L34.4278 20.9534L39.5215 27.5948L20.873 43.8659L20.4696 44.2226Z" fill="black"/>
</g>
</g>
<path d="M19.269 42.6518L2.25635 20.4638C0.774852 18.5329 -0.0114056 16.2536 0.00012503 13.9234C0.0116557 11.5931 0.820424 9.31993 2.32098 7.40036C2.377 7.32979 2.42529 7.27287 2.4658 7.23038C3.63135 5.78279 5.16051 4.59148 6.93432 3.74914C8.70811 2.9068 10.6788 2.43614 12.6929 2.37378H47.3948L34.4278 20.9488L22.3313 38.2687C22.3235 38.2763 22.3236 38.283 22.315 38.2899L19.6077 42.1646L19.269 42.6518Z" fill="url(#paint2_linear_39_1164)"/>
<g style="mix-blend-mode:screen" opacity="0.6">
<g style="mix-blend-mode:screen" opacity="0.6">
<path d="M54.237 63.6011L54.8653 62.8703C55.0804 62.6374 55.2796 62.3934 55.4617 62.1396L55.9857 61.3655C56.1584 61.1085 56.3093 60.8407 56.4374 60.5642C56.5892 60.2963 56.7183 60.0188 56.8235 59.734L57.1303 58.8894C57.2268 58.6056 57.2751 58.315 57.3561 58.0236C57.4281 57.7385 57.4765 57.4491 57.5009 57.1577C57.5444 56.8661 57.5687 56.5724 57.5733 56.2782C57.5733 55.98 57.5975 55.6894 57.5733 55.398L57.5009 54.5185L57.3475 53.6526C57.2233 53.0774 57.0618 52.5088 56.864 51.9498C56.7597 51.6728 56.6546 51.3966 56.5253 51.1264C56.4132 50.8715 56.2762 50.6089 56.1469 50.382C54.7679 48.6147 53.3889 46.8337 52.0452 45.0526C50.6912 43.258 49.3372 41.4626 48.0151 39.6459C46.6929 37.8292 45.3717 36.0133 44.09 34.1822C43.4376 33.267 42.8093 32.3374 42.1801 31.4147C41.5596 30.5041 40.939 29.5935 40.3434 28.6692L55.8487 48.8916C57.5587 51.1278 58.3329 53.8176 58.0389 56.5009C57.7449 59.1842 56.4009 61.694 54.237 63.6011Z" fill="white"/>
</g>
</g>
<g style="mix-blend-mode:screen" opacity="0.6">
<g style="mix-blend-mode:screen" opacity="0.6">
<path d="M66.9785 47.3521C67.7929 46.1174 68.6471 44.9108 69.4848 43.6974C70.3226 42.484 71.1853 41.2569 72.048 40.0504C73.7804 37.6312 75.5329 35.2234 77.3055 32.827C79.0629 30.4215 80.8763 28.0515 82.6647 25.668C84.4747 23.3156 86.2752 20.9496 88.105 18.6108L88.4196 17.745C88.5239 17.4255 88.6609 17.1135 88.7419 16.7941L88.9755 15.822C89.0643 15.503 89.122 15.1777 89.1479 14.85L89.2444 13.8634C89.2608 13.5371 89.2289 13.2109 89.2203 12.877L89.2125 12.3799L89.1315 11.8972C89.0901 11.5682 89.0289 11.2414 88.9462 10.9184L88.6566 9.95998L88.242 9.0349C88.105 8.72226 87.9119 8.43163 87.7508 8.13341C87.5749 7.83857 87.381 7.55208 87.1707 7.27514C86.969 6.9845 86.7191 6.72879 86.5019 6.4594C86.2597 6.19684 86.0097 5.9411 85.7442 5.69296C85.2194 5.19842 84.6422 4.74917 84.0204 4.35132C86.9182 6.07384 88.9203 8.73906 89.5866 11.761C90.2528 14.7829 89.5288 17.9141 87.5741 20.4662L66.9785 47.3521Z" fill="white"/>
</g>
</g>
<g style="mix-blend-mode:screen" opacity="0.6">
<g style="mix-blend-mode:screen" opacity="0.6">
<path d="M22.3315 38.2694C23.2744 36.7298 24.2656 35.2113 25.2413 33.686C25.7403 32.9272 26.216 32.1532 26.7314 31.4011L28.2389 29.1246L31.2606 24.5769L34.3392 20.0496L37.4507 15.5512L40.5853 11.0664L43.7605 6.59603C44.6715 5.32573 45.5661 4.06301 46.4926 2.80181L39.1029 2.6599C36.3949 2.56049 33.6868 2.50358 30.971 2.3761H47.395L34.4281 20.9488L22.3315 38.2694Z" fill="white"/>
</g>
</g>
<g style="mix-blend-mode:multiply" opacity="0.3">
<g style="mix-blend-mode:multiply" opacity="0.3">
<path d="M30.6889 57.5553C30.6803 57.5553 30.6803 57.5486 30.6726 57.541C30.6605 57.5276 30.6495 57.5134 30.6398 57.4985L20.4696 44.2225L19.269 42.6547L2.25635 20.4668C0.774852 18.5358 -0.0114056 16.2566 0.000125031 13.9263C0.0116557 11.596 0.820424 9.32289 2.32098 7.40332C2.377 7.33274 2.42529 7.27583 2.4658 7.23333C2.50631 7.19084 2.5382 7.16199 2.56233 7.14075C2.03002 7.82098 1.59166 8.55465 1.25657 9.32623C0.859749 10.2179 0.59191 11.15 0.459341 12.1006C0.28693 13.3195 0.352222 14.5555 0.652401 15.7552C0.986475 17.1729 1.58556 18.532 2.42527 19.777C2.52181 19.9288 2.64334 20.1383 2.73125 20.2597L3.12686 20.756C3.39232 21.0899 3.65864 21.423 3.93272 21.7637C4.47226 22.4467 5.02041 23.1471 5.58494 23.8566C7.82583 26.6879 10.1779 29.7392 12.5317 32.7905C13.7004 34.3226 14.8588 35.8555 16.0051 37.3595C17.141 38.8772 18.2615 40.3615 19.3414 41.8086C19.4276 41.9293 19.5189 42.0499 19.6077 42.1638C20.0344 42.7382 20.4618 43.3019 20.873 43.8665C22.4442 45.9807 23.8947 47.9643 25.1763 49.7415C26.8682 52.0689 28.2308 54.042 29.2056 55.4041C30.0356 56.6182 30.5597 57.3694 30.6803 57.5394C30.6803 57.5486 30.6889 57.5485 30.6889 57.5553Z" fill="black"/>
</g>
</g>
<g style="mix-blend-mode:multiply" opacity="0.3">
<g style="mix-blend-mode:multiply" opacity="0.3">
<path d="M44.9752 34.665C45.0071 34.6081 45.12 34.4236 45.2976 34.1398L51.7772 25.6749L65.0829 8.31177C64.9614 8.51058 63.9221 10.2134 62.2784 12.6045C61.4079 13.8893 60.3684 15.3653 59.2316 16.9399C58.6516 17.7207 58.0793 18.5334 57.4587 19.3529C56.8382 20.1725 56.2177 20.992 55.5971 21.8222C54.3905 23.39 53.1795 24.9442 52.0108 26.3989C51.9547 26.4748 51.8901 26.5506 51.8332 26.6265C50.6085 28.1517 49.4485 29.5572 48.4323 30.7562C46.5405 32.9978 45.1476 34.4874 44.9752 34.665Z" fill="black"/>
</g>
</g>
<defs>
<linearGradient id="paint0_linear_39_1164" x1="-687.993" y1="-171.396" x2="-628.919" y2="-136.976" gradientUnits="userSpaceOnUse">
<stop stop-color="#EB643F"/>
<stop offset="1" stop-color="#964C9A"/>
</linearGradient>
<linearGradient id="paint1_linear_39_1164" x1="-630.105" y1="-145.988" x2="-659.532" y2="-120.623" gradientUnits="userSpaceOnUse">
<stop stop-color="#DD7230"/>
<stop offset="0.162" stop-color="#FBC000"/>
<stop offset="0.307" stop-color="#FBB500"/>
<stop offset="0.446" stop-color="#FBA300"/>
<stop offset="0.581" stop-color="#FA8900"/>
<stop offset="0.712" stop-color="#FA6800"/>
<stop offset="0.842" stop-color="#F93F00"/>
<stop offset="0.967" stop-color="#F81000"/>
<stop offset="1" stop-color="#F80300"/>
</linearGradient>
<linearGradient id="paint2_linear_39_1164" x1="-691.253" y1="-115.278" x2="-645.47" y2="-115.278" gradientUnits="userSpaceOnUse">
<stop stop-color="#7B61FF"/>
<stop offset="1" stop-color="#2E1F27"/>
</linearGradient>
</defs>
</svg>
